<svg width="273" height="70" viewBox="0 0 273 70" fill="none" xmlns="http://www.w3.org/2000/svg">
<rect x="203" width="70" height="70" rx="35" fill="#333333"/>
<rect x="204" y="1" width="68" height="68" rx="34" stroke="black" stroke-opacity="0.05" stroke-width="2"/>
<path d="M238.845 49.7305C240.339 49.6299 241.821 49.395 243.272 49.0286C245.064 49.5589 246.955 49.6789 248.802 49.3796C248.875 49.3707 248.95 49.3653 249.024 49.3633C249.682 49.3633 250.547 49.7351 251.808 50.5183V49.2308C251.808 49.0065 251.87 48.7864 251.986 48.5935C252.102 48.4006 252.269 48.2419 252.469 48.1339C253.018 47.8287 253.526 47.4855 253.992 47.1043C255.828 45.5937 256.865 43.5764 256.865 41.443C256.865 40.7388 256.752 40.0369 256.527 39.3676C257.083 38.3638 257.529 37.3051 257.859 36.2092C258.922 37.7547 259.493 39.5791 259.5 41.443C259.5 44.3434 258.112 47.0485 255.706 49.0263C255.303 49.3563 254.882 49.66 254.443 49.9373V52.9539C254.443 53.9905 253.21 54.5877 252.341 53.9696C251.518 53.3733 250.667 52.8149 249.791 52.2962C249.538 52.1526 249.276 52.0246 249.007 51.9128C248.276 52.0193 247.538 52.0729 246.8 52.0731C243.801 52.0731 241.029 51.197 238.845 49.7305ZM222.976 43.6996C219.189 40.5784 217 36.3231 217 31.7633C217 22.4486 226.048 15 237.095 15C248.145 15 257.196 22.4462 257.196 31.7633C257.196 41.0804 248.145 48.5243 237.095 48.5243C235.866 48.5256 234.638 48.4323 233.424 48.2454C232.904 48.364 230.822 49.5655 227.823 51.692C226.737 52.4636 225.198 51.7199 225.198 50.4207V45.2776C224.42 44.8044 223.678 44.2762 222.978 43.6973M233.497 45.0731C233.588 45.0731 233.68 45.0801 233.773 45.094C234.859 45.2707 235.967 45.3597 237.095 45.3613C246.429 45.3613 253.897 39.2142 253.897 31.761C253.897 24.3101 246.429 18.1653 237.098 18.1653C227.767 18.1653 220.294 24.3101 220.294 31.761C220.294 35.3633 222.041 38.7564 225.125 41.2965C225.902 41.9349 226.749 42.5081 227.665 43.0163C227.914 43.1521 228.121 43.3503 228.266 43.5908C228.411 43.8313 228.489 44.1055 228.492 44.3852V47.3507C230.864 45.8052 232.425 45.0731 233.497 45.0731Z" fill="#B90909"/>
<path d="M228.952 34.6103C229.657 34.6103 230.332 34.3349 230.83 33.8445C231.329 33.3542 231.608 32.6892 231.608 31.9958C231.608 31.3024 231.329 30.6373 230.83 30.147C230.332 29.6567 229.657 29.3812 228.952 29.3812C228.248 29.3812 227.572 29.6567 227.074 30.147C226.576 30.6373 226.296 31.3024 226.296 31.9958C226.296 32.6892 226.576 33.3542 227.074 33.8445C227.572 34.3349 228.248 34.6103 228.952 34.6103Z" fill="#B90909"/>
<path d="M237.587 34.6103C238.291 34.6103 238.967 34.3349 239.465 33.8445C239.963 33.3542 240.243 32.6892 240.243 31.9958C240.243 31.3024 239.963 30.6373 239.465 30.147C238.967 29.6567 238.291 29.3812 237.587 29.3812C236.882 29.3812 236.207 29.6567 235.709 30.147C235.211 30.6373 234.931 31.3024 234.931 31.9958C234.931 32.6892 235.211 33.3542 235.709 33.8445C236.207 34.3349 236.882 34.6103 237.587 34.6103Z" fill="#B90909"/>
<path d="M246.219 34.6103C246.923 34.6103 247.599 34.3349 248.097 33.8445C248.595 33.3542 248.875 32.6892 248.875 31.9958C248.875 31.3024 248.595 30.6373 248.097 30.147C247.599 29.6567 246.923 29.3812 246.219 29.3812C245.514 29.3812 244.839 29.6567 244.34 30.147C243.842 30.6373 243.562 31.3024 243.562 31.9958C243.562 32.6892 243.842 33.3542 244.34 33.8445C244.839 34.3349 245.514 34.6103 246.219 34.6103Z" fill="#B90909"/>
<path d="M1.184 34.832C1.184 32.656 1.68533 30.704 2.688 28.976C3.712 27.248 5.088 25.904 6.816 24.944C8.56533 23.9627 10.4747 23.472 12.544 23.472C14.912 23.472 17.0133 24.0587 18.848 25.232C20.704 26.384 22.048 28.0267 22.88 30.16H18.496C17.92 28.9867 17.12 28.112 16.096 27.536C15.072 26.96 13.888 26.672 12.544 26.672C11.072 26.672 9.76 27.0027 8.608 27.664C7.456 28.3253 6.54933 29.2747 5.888 30.512C5.248 31.7493 4.928 33.1893 4.928 34.832C4.928 36.4747 5.248 37.9147 5.888 39.152C6.54933 40.3893 7.456 41.3493 8.608 42.032C9.76 42.6933 11.072 43.024 12.544 43.024C13.888 43.024 15.072 42.736 16.096 42.16C17.12 41.584 17.92 40.7093 18.496 39.536H22.88C22.048 41.6693 20.704 43.312 18.848 44.464C17.0133 45.616 14.912 46.192 12.544 46.192C10.4533 46.192 8.544 45.712 6.816 44.752C5.088 43.7707 3.712 42.416 2.688 40.688C1.68533 38.96 1.184 37.008 1.184 34.832ZM35.566 28.08C36.91 28.08 38.1047 28.368 39.15 28.944C40.2167 29.52 41.0487 30.3733 41.646 31.504C42.2647 32.6347 42.574 34 42.574 35.6V46H38.958V36.144C38.958 34.5653 38.5633 33.36 37.774 32.528C36.9847 31.6747 35.9073 31.248 34.542 31.248C33.1767 31.248 32.0887 31.6747 31.278 32.528C30.4887 33.36 30.094 34.5653 30.094 36.144V46H26.446V22.32H30.094V30.416C30.7127 29.6693 31.4913 29.0933 32.43 28.688C33.39 28.2827 34.4353 28.08 35.566 28.08ZM45.3072 37.104C45.3072 35.3333 45.6699 33.7653 46.3952 32.4C47.1419 31.0347 48.1446 29.9787 49.4032 29.232C50.6832 28.464 52.0912 28.08 53.6272 28.08C55.0139 28.08 56.2192 28.3573 57.2432 28.912C58.2886 29.4453 59.1206 30.1173 59.7393 30.928V28.368H63.4193V46H59.7393V43.376C59.1206 44.208 58.2779 44.9013 57.2112 45.456C56.1446 46.0107 54.9286 46.288 53.5632 46.288C52.0486 46.288 50.6619 45.904 49.4032 45.136C48.1446 44.3467 47.1419 43.2587 46.3952 41.872C45.6699 40.464 45.3072 38.8747 45.3072 37.104ZM59.7393 37.168C59.7393 35.952 59.4832 34.896 58.9712 34C58.4806 33.104 57.8299 32.4213 57.0192 31.952C56.2086 31.4827 55.3339 31.248 54.3952 31.248C53.4566 31.248 52.5819 31.4827 51.7712 31.952C50.9606 32.4 50.2992 33.072 49.7872 33.968C49.2966 34.8427 49.0512 35.888 49.0512 37.104C49.0512 38.32 49.2966 39.3867 49.7872 40.304C50.2992 41.2213 50.9606 41.9253 51.7712 42.416C52.6032 42.8853 53.4779 43.12 54.3952 43.12C55.3339 43.12 56.2086 42.8853 57.0192 42.416C57.8299 41.9467 58.4806 41.264 58.9712 40.368C59.4832 39.4507 59.7393 38.384 59.7393 37.168ZM71.7628 31.344V41.104C71.7628 41.7653 71.9121 42.2453 72.2108 42.544C72.5308 42.8213 73.0641 42.96 73.8108 42.96H76.0508V46H73.1708C71.5281 46 70.2694 45.616 69.3948 44.848C68.5201 44.08 68.0828 42.832 68.0828 41.104V31.344H66.0028V28.368H68.0828V23.984H71.7628V28.368H76.0508V31.344H71.7628ZM109.998 28.368L104.526 46H100.686L97.1335 32.976L93.5815 46H89.7415L84.2375 28.368H87.9495L91.6295 42.544L95.3735 28.368H99.1815L102.766 42.48L106.414 28.368H109.998ZM113.876 26.032C113.214 26.032 112.66 25.808 112.212 25.36C111.764 24.912 111.54 24.3573 111.54 23.696C111.54 23.0347 111.764 22.48 112.212 22.032C112.66 21.584 113.214 21.36 113.876 21.36C114.516 21.36 115.06 21.584 115.508 22.032C115.956 22.48 116.18 23.0347 116.18 23.696C116.18 24.3573 115.956 24.912 115.508 25.36C115.06 25.808 114.516 26.032 113.876 26.032ZM115.668 28.368V46H112.02V28.368H115.668ZM124.009 31.344V41.104C124.009 41.7653 124.159 42.2453 124.457 42.544C124.777 42.8213 125.311 42.96 126.057 42.96H128.297V46H125.417C123.775 46 122.516 45.616 121.641 44.848C120.767 44.08 120.329 42.832 120.329 41.104V31.344H118.249V28.368H120.329V23.984H124.009V28.368H128.297V31.344H124.009ZM140.075 28.08C141.419 28.08 142.614 28.368 143.659 28.944C144.726 29.52 145.558 30.3733 146.155 31.504C146.774 32.6347 147.083 34 147.083 35.6V46H143.467V36.144C143.467 34.5653 143.073 33.36 142.283 32.528C141.494 31.6747 140.417 31.248 139.051 31.248C137.686 31.248 136.598 31.6747 135.787 32.528C134.998 33.36 134.603 34.5653 134.603 36.144V46H130.955V22.32H134.603V30.416C135.222 29.6693 136.001 29.0933 136.939 28.688C137.899 28.2827 138.945 28.08 140.075 28.08ZM174.609 28.368V46H170.961V43.92C170.385 44.6453 169.628 45.2213 168.689 45.648C167.772 46.0533 166.791 46.256 165.745 46.256C164.359 46.256 163.111 45.968 162.001 45.392C160.913 44.816 160.049 43.9627 159.409 42.832C158.791 41.7013 158.481 40.336 158.481 38.736V28.368H162.097V38.192C162.097 39.7707 162.492 40.9867 163.281 41.84C164.071 42.672 165.148 43.088 166.513 43.088C167.879 43.088 168.956 42.672 169.745 41.84C170.556 40.9867 170.961 39.7707 170.961 38.192V28.368H174.609ZM185.118 46.288C183.732 46.288 182.484 46.0427 181.374 45.552C180.286 45.04 179.422 44.3573 178.782 43.504C178.142 42.6293 177.801 41.6587 177.758 40.592H181.534C181.598 41.3387 181.95 41.968 182.59 42.48C183.252 42.9707 184.073 43.216 185.054 43.216C186.078 43.216 186.868 43.024 187.422 42.64C187.998 42.2347 188.286 41.7227 188.286 41.104C188.286 40.4427 187.966 39.952 187.326 39.632C186.708 39.312 185.716 38.96 184.35 38.576C183.028 38.2133 181.95 37.8613 181.118 37.52C180.286 37.1787 179.561 36.656 178.942 35.952C178.345 35.248 178.046 34.32 178.046 33.168C178.046 32.2293 178.324 31.376 178.878 30.608C179.433 29.8187 180.222 29.2 181.246 28.752C182.292 28.304 183.486 28.08 184.83 28.08C186.836 28.08 188.446 28.592 189.662 29.616C190.9 30.6187 191.561 31.9947 191.646 33.744H187.998C187.934 32.9547 187.614 32.3253 187.038 31.856C186.462 31.3867 185.684 31.152 184.702 31.152C183.742 31.152 183.006 31.3333 182.494 31.696C181.982 32.0587 181.726 32.5387 181.726 33.136C181.726 33.6053 181.897 34 182.238 34.32C182.58 34.64 182.996 34.896 183.486 35.088C183.977 35.2587 184.702 35.4827 185.662 35.76C186.942 36.1013 187.988 36.4533 188.798 36.816C189.63 37.1573 190.345 37.6693 190.942 38.352C191.54 39.0347 191.849 39.9413 191.87 41.072C191.87 42.0747 191.593 42.9707 191.038 43.76C190.484 44.5493 189.694 45.168 188.67 45.616C187.668 46.064 186.484 46.288 185.118 46.288Z" fill="black" fill-opacity="0.7"/>
</svg>
