<svg width="25" height="31" viewBox="0 0 25 31" fill="none" xmlns="http://www.w3.org/2000/svg">
<path d="M8.12516 16.9582H16.8752C17.2884 16.9582 17.635 16.8182 17.915 16.5382C18.195 16.2582 18.3345 15.9121 18.3335 15.4998C18.3325 15.0876 18.1925 14.7415 17.9135 14.4615C17.6345 14.1815 17.2884 14.0415 16.8752 14.0415H8.12516C7.71197 14.0415 7.36586 14.1815 7.08683 14.4615C6.8078 14.7415 6.6678 15.0876 6.66683 15.4998C6.66586 15.9121 6.80586 16.2587 7.08683 16.5396C7.3678 16.8206 7.71391 16.9601 8.12516 16.9582ZM8.12516 21.3332H16.8752C17.2884 21.3332 17.635 21.1932 17.915 20.9132C18.195 20.6332 18.3345 20.2871 18.3335 19.8748C18.3325 19.4626 18.1925 19.1165 17.9135 18.8365C17.6345 18.5565 17.2884 18.4165 16.8752 18.4165H8.12516C7.71197 18.4165 7.36586 18.5565 7.08683 18.8365C6.8078 19.1165 6.6678 19.4626 6.66683 19.8748C6.66586 20.2871 6.80586 20.6337 7.08683 20.9146C7.3678 21.1956 7.71391 21.3351 8.12516 21.3332ZM8.12516 25.7082H12.5002C12.9134 25.7082 13.26 25.5682 13.54 25.2882C13.82 25.0082 13.9595 24.6621 13.9585 24.2498C13.9575 23.8376 13.8175 23.4915 13.5385 23.2115C13.2595 22.9315 12.9134 22.7915 12.5002 22.7915H8.12516C7.71197 22.7915 7.36586 22.9315 7.08683 23.2115C6.8078 23.4915 6.6678 23.8376 6.66683 24.2498C6.66586 24.6621 6.80586 25.0087 7.08683 25.2896C7.3678 25.5706 7.71391 25.7101 8.12516 25.7082ZM3.75016 30.0832C2.94808 30.0832 2.26169 29.7978 1.691 29.2271C1.1203 28.6564 0.834468 27.9696 0.833496 27.1665V3.83317C0.833496 3.03109 1.11933 2.3447 1.691 1.774C2.26266 1.20331 2.94905 0.917476 3.75016 0.916504H14.2137C14.6026 0.916504 14.9735 0.989421 15.3264 1.13525C15.6793 1.28109 15.989 1.48768 16.2554 1.75505L23.3283 8.82796C23.5956 9.09532 23.8022 9.40546 23.9481 9.75838C24.0939 10.1113 24.1668 10.4817 24.1668 10.8696V27.1665C24.1668 27.9686 23.8815 28.6555 23.3108 29.2271C22.7401 29.7988 22.0532 30.0841 21.2502 30.0832H3.75016ZM13.9585 9.6665C13.9585 10.0797 14.0985 10.4263 14.3785 10.7063C14.6585 10.9863 15.0046 11.1258 15.4168 11.1248H21.2502L13.9585 3.83317V9.6665Z" fill="#333333"/>
</svg>
