<svg width="40" height="40" viewBox="0 0 40 40" fill="none" xmlns="http://www.w3.org/2000/svg">
<g clip-path="url(#clip0_1968_1788)">
<path d="M25.4085 29.7181H14.5918V10.2798H25.4085V29.7181Z" fill="#FF5F00"/>
<path d="M15.2783 19.9998C15.2767 18.1278 15.701 16.2801 16.519 14.5964C17.337 12.9126 18.5274 11.4371 20 10.2814C18.1764 8.84831 15.9864 7.95712 13.6804 7.7097C11.3743 7.46229 9.04507 7.86863 6.95898 8.8823C4.8729 9.89596 3.11406 11.4761 1.88347 13.442C0.652887 15.408 0.000199451 17.6804 0 19.9998C0.000445075 22.3188 0.653209 24.591 1.88371 26.5566C3.11421 28.5223 4.87283 30.1021 6.95862 31.1158C9.04441 32.1294 11.3733 32.5358 13.6791 32.2887C15.9849 32.0415 18.1747 31.1507 19.9983 29.7181C18.5262 28.5621 17.3363 27.0864 16.5186 25.4028C15.7009 23.7191 15.2767 21.8715 15.2783 19.9998Z" fill="#EB001B"/>
<path d="M40 19.9998C39.9998 22.3191 39.3471 24.5916 38.1165 26.5575C36.8859 28.5235 35.1271 30.1036 33.041 31.1172C30.9549 32.1309 28.6257 32.5373 26.3196 32.2898C24.0136 32.0424 21.8236 31.1512 20 29.7181C22.875 27.4548 24.7217 23.9431 24.7217 19.9998C24.7217 16.0564 22.875 12.5448 20 10.2814C21.8236 8.84831 24.0136 7.95712 26.3196 7.7097C28.6257 7.46229 30.9549 7.86863 33.041 8.8823C35.1271 9.89596 36.8859 11.4761 38.1165 13.442C39.3471 15.408 39.9998 17.6804 40 19.9998Z" fill="#F79E1B"/>
</g>
<defs>
<clipPath id="clip0_1968_1788">
<rect width="40" height="40" fill="white"/>
</clipPath>
</defs>
</svg>
