<svg width="24" height="24" viewBox="0 0 24 24" fill="none" xmlns="http://www.w3.org/2000/svg">
<path d="M2 9.99991H5C5.26522 9.99991 5.51957 10.1053 5.70711 10.2928C5.89464 10.4803 6 10.7347 6 10.9999V19.9999C6 20.2651 5.89464 20.5195 5.70711 20.707C5.51957 20.8946 5.26522 20.9999 5 20.9999H2C1.73478 20.9999 1.48043 20.8946 1.29289 20.707C1.10536 20.5195 1 20.2651 1 19.9999V10.9999C1 10.7347 1.10536 10.4803 1.29289 10.2928C1.48043 10.1053 1.73478 9.99991 2 9.99991ZM2 10.9999V19.9999H5V10.9999H2ZM17.72 19.0299L20.72 14.0299C20.9 13.7299 21 13.3699 21 12.9999V11.9999C21 11.4695 20.7893 10.9608 20.4142 10.5857C20.0391 10.2106 19.5304 9.99991 19 9.99991H13.39L14.85 4.55991V4.53991C14.8973 4.37133 14.8982 4.19307 14.8524 4.02405C14.8066 3.85503 14.716 3.70156 14.59 3.57991L8.59 9.58991C8.22 9.94991 8 10.4499 8 10.9999V17.9999C8 18.5303 8.21071 19.0391 8.58579 19.4141C8.96086 19.7892 9.46957 19.9999 10 19.9999H16C16.73 19.9999 17.37 19.6099 17.72 19.0299ZM22 12.9999C22 13.5899 21.83 14.1499 21.53 14.6099L18.62 19.4499C18.11 20.3799 17.13 20.9999 16 20.9999H10C9.20435 20.9999 8.44129 20.6838 7.87868 20.1212C7.31607 19.5586 7 18.7956 7 17.9999V10.9999C7 10.1699 7.34 9.41991 7.88 8.87991L14.59 2.15991L15.3 2.86991C15.83 3.39991 16 4.15991 15.81 4.83991L14.69 8.99991H19C19.7956 8.99991 20.5587 9.31598 21.1213 9.87859C21.6839 10.4412 22 11.2043 22 11.9999V12.9999Z" fill="black" fill-opacity="0.7"/>
</svg>
