<svg width="25" height="25" viewBox="0 0 25 25" fill="none" xmlns="http://www.w3.org/2000/svg">
<path d="M20.98 3.92447C19.0554 1.93871 16.5153 0.703504 13.7976 0.431797C11.0799 0.16009 8.35485 0.868912 6.0923 2.43606C3.82974 4.00321 2.17145 6.33048 1.40333 9.01664C0.635205 11.7028 0.805379 14.5795 1.88451 17.1508C1.99699 17.3898 2.03389 17.6589 1.99008 17.9204L0.95789 23.0065C0.918122 23.2015 0.926243 23.4036 0.981521 23.5946C1.0368 23.7856 1.1375 23.9595 1.27458 24.1007C1.38696 24.2151 1.52075 24.3049 1.66791 24.3648C1.81507 24.4248 1.97254 24.4535 2.13083 24.4494H2.36542L7.3856 23.4153C7.64075 23.3839 7.89948 23.4212 8.13628 23.5236C10.6446 24.6298 13.4508 24.8042 16.0712 24.0168C18.6915 23.2294 20.9618 21.5295 22.4906 19.2101C24.0193 16.8907 24.7108 14.0972 24.4457 11.3113C24.1807 8.52528 22.9757 5.9214 21.0386 3.94852L20.98 3.92447ZM7.99552 13.6278C7.76354 13.6278 7.53676 13.5573 7.34387 13.4252C7.15099 13.2931 7.00065 13.1053 6.91187 12.8856C6.82309 12.6659 6.79986 12.4241 6.84512 12.1908C6.89038 11.9576 7.00209 11.7434 7.16613 11.5752C7.33017 11.407 7.53917 11.2925 7.7667 11.2461C7.99422 11.1997 8.23006 11.2235 8.44439 11.3146C8.65872 11.4056 8.8419 11.5597 8.97079 11.7574C9.09967 11.9551 9.16846 12.1876 9.16846 12.4254C9.16846 12.7443 9.04489 13.0502 8.82492 13.2756C8.60495 13.5011 8.30661 13.6278 7.99552 13.6278ZM12.6873 13.6278C12.4553 13.6278 12.2285 13.5573 12.0356 13.4252C11.8427 13.2931 11.6924 13.1053 11.6036 12.8856C11.5148 12.6659 11.4916 12.4241 11.5369 12.1908C11.5821 11.9576 11.6938 11.7434 11.8579 11.5752C12.0219 11.407 12.2309 11.2925 12.4585 11.2461C12.686 11.1997 12.9218 11.2235 13.1361 11.3146C13.3505 11.4056 13.5337 11.5597 13.6625 11.7574C13.7914 11.9551 13.8602 12.1876 13.8602 12.4254C13.8602 12.7443 13.7366 13.0502 13.5167 13.2756C13.2967 13.5011 12.9984 13.6278 12.6873 13.6278ZM17.379 13.6278C17.1471 13.6278 16.9203 13.5573 16.7274 13.4252C16.5345 13.2931 16.3842 13.1053 16.2954 12.8856C16.2066 12.6659 16.1834 12.4241 16.2286 12.1908C16.2739 11.9576 16.3856 11.7434 16.5496 11.5752C16.7137 11.407 16.9227 11.2925 17.1502 11.2461C17.3777 11.1997 17.6136 11.2235 17.8279 11.3146C18.0422 11.4056 18.2254 11.5597 18.3543 11.7574C18.4832 11.9551 18.552 12.1876 18.552 12.4254C18.552 12.7443 18.4284 13.0502 18.2084 13.2756C17.9885 13.5011 17.6901 13.6278 17.379 13.6278Z" fill="white"/>
</svg>
